<svg id="Layer_1" data-name="Layer 1" xmlns="http://www.w3.org/2000/svg" xmlns:xlink="http://www.w3.org/1999/xlink" viewBox="0 0 290.09 163.18"><defs><style>.cls-1{fill:#e95420;}.cls-2{fill:url(#linear-gradient);}</style><linearGradient id="linear-gradient" x1="145.34" y1="159.98" x2="145.34" y2="2.38" gradientUnits="userSpaceOnUse"><stop offset="0" stop-color="#e95420"/><stop offset="0.32" stop-color="#772953"/><stop offset="0.48" stop-color="#6a224a"/><stop offset="0.78" stop-color="#491033"/><stop offset="1" stop-color="#2c001e"/></linearGradient></defs><path class="cls-1" d="M107.6,71.71a14.18,14.18,0,1,0,14.18,14.18A14.18,14.18,0,0,0,107.6,71.71Zm0,16.82a2.65,2.65,0,1,1,2.65-2.64A2.65,2.65,0,0,1,107.6,88.53Z"/><path class="cls-1" d="M183.08,71.71a14.18,14.18,0,1,0,14.18,14.18A14.18,14.18,0,0,0,183.08,71.71Zm0,16.82a2.65,2.65,0,1,1,2.65-2.64A2.65,2.65,0,0,1,183.08,88.53Z"/><path class="cls-2" d="M145.86,160h-.41a21.22,21.22,0,0,1-13.1-5.24,48,48,0,0,0,13.1,1.15v0l.2,0,.21,0v0A47.91,47.91,0,0,0,159,154.73,21.22,21.22,0,0,1,145.86,160Zm39.32-98.84c-9.77,0-26.71,6.08-26.71,24.76s22.37,27.8,22.37,43.43S165,151.48,160.2,152.13s-11.94-1.95-14.55-1.95-9.77,2.6-14.55,1.95-20.63-7.17-20.63-22.81,22.37-24.76,22.37-43.43S115.9,61.13,106.12,61.13s-6.08-7.61,1.3-11.52c6.79-3.59,20.34-8.26,34.45-9a46.15,46.15,0,0,1,3.94,19.11,46.75,46.75,0,0,1,3.87-19.09c14,.78,27.46,5.43,34.2,9C191.26,53.52,195,61.13,185.18,61.13Zm-27.47,55.92c-4.57-2.44-10.92.17-12.06.17s-7.49-2.61-12.05-.17-1,10.92.49,11.41,1.79-2.28,4.07-2.28,4.23.65,5.05,2.44-.82,1.63-.82,4.23,3.26,3.26,3.26,3.26,3.26-.65,3.26-3.26-1.63-2.44-.82-4.23,2.77-2.44,5-2.44,2.61,2.76,4.08,2.28S162.27,119.5,157.71,117.05ZM49.22,2.38a19.49,19.49,0,0,0,4.36,11.27,39.8,39.8,0,0,1-8.64-5.11A58.49,58.49,0,0,0,55.69,29.29L32.92,18.38A51.29,51.29,0,0,0,47.15,32.16L18.91,23.3c4.79,7.89,13.65,12.18,22,16.06L12.64,33A43,43,0,0,0,36.22,45.4c-8.87,1-17.83.06-26.71-.85L33.43,54.61a158.06,158.06,0,0,0-21.87-.5A98.72,98.72,0,0,0,29.3,61.5,123,123,0,0,1,3.62,65.19a115,115,0,0,1,23.57,2.19A67,67,0,0,1,6.09,78.84a263.08,263.08,0,0,0,32.31-5,123.57,123.57,0,0,0-24,10.55,159.4,159.4,0,0,0,28.27-5.73A59.31,59.31,0,0,1,28.42,90.42,97.55,97.55,0,0,0,55.67,80.28,68.34,68.34,0,0,1,40.75,93,42.32,42.32,0,0,0,52,93.72c-2.45,1.7-3.48,4.82-4.71,7.58s-5.21,4.85-8.37,4.73c.78,1.77,3.8,4.34,5.53,5.2a14.69,14.69,0,0,1-10.64,4.38c6.3,2.47,7.71,4.1,12.44,3-1.79,3.42-2.61,4.08-7,5.6,1.66,2.2,6.54,2.67,6.42,6.58-2.43-.62-3.81-.39-7.28.8,3.23.8,6.69,2.25,8.35,5.13-3.14.63-3,2.58-7.76,3.16,8.08,2,6,3.66,15.43,5.67,7.25,1.55,7.49,3,10.58,6A12.31,12.31,0,0,0,62,141c-2.06-2.28-4.07-3.53-6.68-9.56-8.8-24.11.94-35.3,2.39-39.47,1.35-3.89.31-6.4.87-8.72.36-1.46.63-1.93,1.06-3.37,1.56-5.16-1.12-7.48-1.27-14.43A37.62,37.62,0,0,1,69.91,38.14C76.78,31.57,80,32.1,84,23.49A88.44,88.44,0,0,1,49.22,2.38ZM206.65,23.49c4,8.61,7.25,8.08,14.12,14.65a37.62,37.62,0,0,1,11.51,27.31c-.15,7-2.83,9.27-1.27,14.43.43,1.44.7,1.91,1.06,3.37.56,2.32-.48,4.83.87,8.72,1.45,4.17,11.19,15.36,2.39,39.47-2.61,6-4.62,7.28-6.68,9.56a12.31,12.31,0,0,0-2.93,10.48c3.09-2.93,3.33-4.42,10.58-6,9.4-2,7.35-3.71,15.43-5.67-4.73-.58-4.62-2.53-7.76-3.16,1.66-2.88,5.12-4.33,8.35-5.13-3.47-1.19-4.85-1.42-7.28-.8-.12-3.91,4.76-4.38,6.42-6.58-4.4-1.52-5.22-2.18-7-5.6,4.73,1.14,6.14-.49,12.43-3a14.68,14.68,0,0,1-10.63-4.38c1.73-.86,4.75-3.43,5.53-5.2-3.16.12-7.08-1.84-8.37-4.73s-2.26-5.88-4.71-7.58A42.21,42.21,0,0,0,249.92,93,68.52,68.52,0,0,1,235,80.28a97.55,97.55,0,0,0,27.25,10.14A59.31,59.31,0,0,1,248,78.61a159.4,159.4,0,0,0,28.27,5.73,123.57,123.57,0,0,0-24-10.55,263.08,263.08,0,0,0,32.31,5,67,67,0,0,1-21.1-11.46,115,115,0,0,1,23.57-2.19,123,123,0,0,1-25.68-3.69,98.72,98.72,0,0,0,17.74-7.39,158.06,158.06,0,0,0-21.87.5l23.91-10.06c-8.87.91-17.83,1.82-26.7.85A43,43,0,0,0,278,33l-28.29,6.39c8.37-3.88,17.23-8.17,22-16.06l-28.24,8.86a51.43,51.43,0,0,0,14.23-13.78L235,29.29A58.49,58.49,0,0,0,245.74,8.54a39.8,39.8,0,0,1-8.64,5.11,19.49,19.49,0,0,0,4.36-11.27A88.44,88.44,0,0,1,206.65,23.49Z"/></svg>